<svg xmlns="http://www.w3.org/2000/svg" width="24" height="21" viewBox="0 0 24 21"><g><g><path d="M20.892 1.57h2.37v17.347h-2.37zm-4.717.627l-.328.095c-.41.12-.893-.047-1.06-.365a.528.528 0 0 1-.01-.478c.085-.18.265-.32.493-.386L18.97 0l.45 3.04a.548.548 0 0 1-.133.444.888.888 0 0 1-.6.287c-.03.003-.063.004-.094.004-.419 0-.774-.246-.827-.571l-.057-.46C13.434 8.203 3.59 14.054 3.162 14.306a.981.981 0 0 1-.502.131.938.938 0 0 1-.638-.232.562.562 0 0 1-.192-.484.634.634 0 0 1 .328-.46c.1-.06 9.85-5.874 14.017-11.065zm2.803 3.226v13.494h-2.37V5.423zm-4.143 4.01v9.484h-2.37V9.432zm-4.284 4.165v5.319H8.18v-5.319zm-4.53 2.083v3.236H3.653V15.68zM.001 21v-1.621h23.998v1.621z"/><path fill="#09215a" d="M20.892 1.57h2.37v17.347h-2.37zm-4.717.627l-.328.095c-.41.12-.893-.047-1.06-.365a.528.528 0 0 1-.01-.478c.085-.18.265-.32.493-.386L18.97 0l.45 3.04a.548.548 0 0 1-.133.444.888.888 0 0 1-.6.287c-.03.003-.063.004-.094.004-.419 0-.774-.246-.827-.571l-.057-.46C13.434 8.203 3.59 14.054 3.162 14.306a.981.981 0 0 1-.502.131.938.938 0 0 1-.638-.232.562.562 0 0 1-.192-.484.634.634 0 0 1 .328-.46c.1-.06 9.85-5.874 14.017-11.065zm2.803 3.226v13.494h-2.37V5.423zm-4.143 4.01v9.484h-2.37V9.432zm-4.284 4.165v5.319H8.18v-5.319zm-4.53 2.083v3.236H3.653V15.68zM.001 21v-1.621h23.998v1.621z"/></g></g></svg>