<svg xmlns="http://www.w3.org/2000/svg" width="23" height="23" viewBox="0 0 23 23"><g><g><path d="M17.498 3.925v.116h-4.056V-.002h.115c.532 0 1.066.216 1.443.592l1.905 1.906c.382.382.593.89.593 1.429zM11.662 15.83a1.69 1.69 0 0 0 .23 1.517c.316.44.827.702 1.366.702l.327-.018 2.142-.715a2.677 2.677 0 0 0 1.048-.646l.74-.723v5.029c0 1.115-.924 2.022-2.039 2.022H2.021A2.024 2.024 0 0 1 0 20.976V2.02C0 .905.907-.002 2.02-.002H12.13v4.717c0 .372.28.674.652.674h4.734v2.918l-4.562 4.544c-.293.296-.518.66-.647 1.053zM2.695 12.8c0 .372.302.674.674.674h6.716a.674.674 0 1 0 0-1.349H3.37a.674.674 0 0 0-.674.675zm.674-2.022h6.716a.673.673 0 1 0 0-1.348H3.37a.674.674 0 1 0 0 1.348zm0 5.39h6.716a.673.673 0 1 0 0-1.346H3.37a.673.673 0 1 0 0 1.347zm5.369 2.696a.673.673 0 1 0 0 1.348h4.043a.674.674 0 0 0 0-1.348zM12.78 8.084a.673.673 0 1 0 0-1.348H3.369a.673.673 0 1 0 0 1.348zm2.343 8.013l-1.758.587a.336.336 0 0 1-.426-.426l.586-1.759zm5.55-5.232l-4.438 4.438-1.914-1.914L18.76 8.95zm1.931-1.932l-.979.979-1.913-1.913.979-.98c.238-.238.587-.375.956-.375.37 0 .719.137.956.375a1.356 1.356 0 0 1 .011 1.904l-.005.005a.716.716 0 0 1-.005.005l.002-.002-.002.002zm.004-.004zm.006-.006c.005-.004.005-.004 0 0"/><path fill="#111c39" d="M17.498 3.925v.116h-4.056V-.002h.115c.532 0 1.066.216 1.443.592l1.905 1.906c.382.382.593.89.593 1.429zM11.662 15.83a1.69 1.69 0 0 0 .23 1.517c.316.44.827.702 1.366.702l.327-.018 2.142-.715a2.677 2.677 0 0 0 1.048-.646l.74-.723v5.029c0 1.115-.924 2.022-2.039 2.022H2.021A2.024 2.024 0 0 1 0 20.976V2.02C0 .905.907-.002 2.02-.002H12.13v4.717c0 .372.28.674.652.674h4.734v2.918l-4.562 4.544c-.293.296-.518.66-.647 1.053zM2.695 12.8c0 .372.302.674.674.674h6.716a.674.674 0 1 0 0-1.349H3.37a.674.674 0 0 0-.674.675zm.674-2.022h6.716a.673.673 0 1 0 0-1.348H3.37a.674.674 0 1 0 0 1.348zm0 5.39h6.716a.673.673 0 1 0 0-1.346H3.37a.673.673 0 1 0 0 1.347zm5.369 2.696a.673.673 0 1 0 0 1.348h4.043a.674.674 0 0 0 0-1.348zM12.78 8.084a.673.673 0 1 0 0-1.348H3.369a.673.673 0 1 0 0 1.348zm2.343 8.013l-1.758.587a.336.336 0 0 1-.426-.426l.586-1.759zm5.55-5.232l-4.438 4.438-1.914-1.914L18.76 8.95zm1.931-1.932l-.979.979-1.913-1.913.979-.98c.238-.238.587-.375.956-.375.37 0 .719.137.956.375a1.356 1.356 0 0 1 .011 1.904l-.005.005a.716.716 0 0 1-.005.005l.002-.002-.002.002zm.004-.004zm.006-.006c.005-.004.005-.004 0 0"/></g></g></svg>