<svg xmlns="http://www.w3.org/2000/svg" width="15" height="15" viewBox="0 0 15 15"><g><g><path d="M15 7.498c0 4.135-3.365 7.5-7.5 7.5-4.136 0-7.5-3.365-7.5-7.5 0-4.136 3.364-7.5 7.5-7.5 4.135 0 7.5 3.364 7.5 7.5zm-2.583 3.294l-.678-.39a.395.395 0 0 1 .394-.685l.68.393a5.887 5.887 0 0 0 .605-2.421l-.645.002a.208.208 0 0 1 0-.418l.643-.002a5.882 5.882 0 0 0-.603-2.385l-.68.392a.393.393 0 0 1-.54-.145.393.393 0 0 1 .146-.538l.678-.391a5.955 5.955 0 0 0-1.794-1.734l-.32.558a.21.21 0 0 1-.285.077.208.208 0 0 1-.077-.285l.32-.559a5.866 5.866 0 0 0-2.366-.671v.785a.395.395 0 1 1-.79 0V1.59c-.862.057-1.675.3-2.398.689l.323.556a.208.208 0 0 1-.076.286.213.213 0 0 1-.209 0 .22.22 0 0 1-.076-.076l-.323-.556a5.965 5.965 0 0 0-1.764 1.715l.679.391a.393.393 0 0 1-.198.736.393.393 0 0 1-.197-.053l-.68-.392a5.885 5.885 0 0 0-.604 2.421l.645-.002a.209.209 0 0 1 .001.417l-.644.004c.032.852.245 1.66.603 2.384l.68-.393a.395.395 0 0 1 .394.685l-.678.39a5.965 5.965 0 0 0 1.794 1.734l.32-.558a.209.209 0 1 1 .362.208l-.32.558c.715.38 1.516.615 2.366.672v-.786a.394.394 0 1 1 .79 0v.786a5.901 5.901 0 0 0 2.398-.688l-.324-.557a.208.208 0 1 1 .362-.21l.323.556a5.967 5.967 0 0 0 1.763-1.715zm-1.326-5.241c.133.24.047.54-.193.674L8.315 7.658a.83.83 0 0 1-1.63 0L4.1 6.225a.496.496 0 0 1 .481-.868l2.532 1.405a.818.818 0 0 1 .771 0l2.532-1.405a.496.496 0 0 1 .674.194z"/><path fill="#131f4f" d="M15 7.498c0 4.135-3.365 7.5-7.5 7.5-4.136 0-7.5-3.365-7.5-7.5 0-4.136 3.364-7.5 7.5-7.5 4.135 0 7.5 3.364 7.5 7.5zm-2.583 3.294l-.678-.39a.395.395 0 0 1 .394-.685l.68.393a5.887 5.887 0 0 0 .605-2.421l-.645.002a.208.208 0 0 1 0-.418l.643-.002a5.882 5.882 0 0 0-.603-2.385l-.68.392a.393.393 0 0 1-.54-.145.393.393 0 0 1 .146-.538l.678-.391a5.955 5.955 0 0 0-1.794-1.734l-.32.558a.21.21 0 0 1-.285.077.208.208 0 0 1-.077-.285l.32-.559a5.866 5.866 0 0 0-2.366-.671v.785a.395.395 0 1 1-.79 0V1.59c-.862.057-1.675.3-2.398.689l.323.556a.208.208 0 0 1-.076.286.213.213 0 0 1-.209 0 .22.22 0 0 1-.076-.076l-.323-.556a5.965 5.965 0 0 0-1.764 1.715l.679.391a.393.393 0 0 1-.198.736.393.393 0 0 1-.197-.053l-.68-.392a5.885 5.885 0 0 0-.604 2.421l.645-.002a.209.209 0 0 1 .001.417l-.644.004c.032.852.245 1.66.603 2.384l.68-.393a.395.395 0 0 1 .394.685l-.678.39a5.965 5.965 0 0 0 1.794 1.734l.32-.558a.209.209 0 1 1 .362.208l-.32.558c.715.38 1.516.615 2.366.672v-.786a.394.394 0 1 1 .79 0v.786a5.901 5.901 0 0 0 2.398-.688l-.324-.557a.208.208 0 1 1 .362-.21l.323.556a5.967 5.967 0 0 0 1.763-1.715zm-1.326-5.241c.133.24.047.54-.193.674L8.315 7.658a.83.83 0 0 1-1.63 0L4.1 6.225a.496.496 0 0 1 .481-.868l2.532 1.405a.818.818 0 0 1 .771 0l2.532-1.405a.496.496 0 0 1 .674.194z"/></g></g></svg>