<svg xmlns="http://www.w3.org/2000/svg" width="24" height="23" viewBox="0 0 24 23"><g><g><path d="M11.478 5.9v5.09H6.261c.104-1.833.313-3.562.835-5.09zm-5.53 11.195H1.46A12.022 12.022 0 0 1 0 12.008h5.217c.105 1.83.313 3.561.73 5.087zm5.53-16.69v4.478h-4.07c.94-2.443 2.4-4.172 4.07-4.478zm5.113 4.478h-4.07V.405c1.67.306 3.13 2.035 4.07 4.478zm1.148 6.106h-5.217V5.901h4.382c.522 1.527.73 3.256.835 5.088zm6.26 1.019a12.022 12.022 0 0 1-1.46 5.087h-4.487c.417-1.526.73-3.256.73-5.087zm-12.521 0v5.087H7.096c-.522-1.526-.731-3.256-.835-5.087zM5.948 5.9c-.418 1.527-.626 3.256-.73 5.088H0a12.026 12.026 0 0 1 1.46-5.088zm5.53 12.212v4.478c-1.67-.305-3.13-2.036-4.07-4.478zM9.6 22.998c-3.13-.61-5.74-2.443-7.513-4.885H6.26c.835 2.24 1.982 3.969 3.339 4.885zm12.208-4.885c-1.67 2.545-4.382 4.275-7.513 4.885 1.461-.916 2.61-2.646 3.34-4.885zm.105-13.23h-4.174c-.835-2.239-1.983-3.97-3.34-4.885 3.131.61 5.74 2.442 7.514 4.885zM9.704-.002c-1.46.916-2.609 2.646-3.339 4.885H2.191C3.861 2.339 6.574.608 9.704-.002zm6.887 18.115c-.94 2.442-2.4 4.173-4.07 4.478v-4.478zm1.148-6.105c-.104 1.83-.313 3.561-.835 5.087h-4.382v-5.087zm6.26-1.019h-5.217c-.104-1.832-.313-3.561-.73-5.088h4.487a12.026 12.026 0 0 1 1.46 5.088z"/><path fill="#fff" d="M11.478 5.9v5.09H6.261c.104-1.833.313-3.562.835-5.09zm-5.53 11.195H1.46A12.022 12.022 0 0 1 0 12.008h5.217c.105 1.83.313 3.561.73 5.087zm5.53-16.69v4.478h-4.07c.94-2.443 2.4-4.172 4.07-4.478zm5.113 4.478h-4.07V.405c1.67.306 3.13 2.035 4.07 4.478zm1.148 6.106h-5.217V5.901h4.382c.522 1.527.73 3.256.835 5.088zm6.26 1.019a12.022 12.022 0 0 1-1.46 5.087h-4.487c.417-1.526.73-3.256.73-5.087zm-12.521 0v5.087H7.096c-.522-1.526-.731-3.256-.835-5.087zM5.948 5.9c-.418 1.527-.626 3.256-.73 5.088H0a12.026 12.026 0 0 1 1.46-5.088zm5.53 12.212v4.478c-1.67-.305-3.13-2.036-4.07-4.478zM9.6 22.998c-3.13-.61-5.74-2.443-7.513-4.885H6.26c.835 2.24 1.982 3.969 3.339 4.885zm12.208-4.885c-1.67 2.545-4.382 4.275-7.513 4.885 1.461-.916 2.61-2.646 3.34-4.885zm.105-13.23h-4.174c-.835-2.239-1.983-3.97-3.34-4.885 3.131.61 5.74 2.442 7.514 4.885zM9.704-.002c-1.46.916-2.609 2.646-3.339 4.885H2.191C3.861 2.339 6.574.608 9.704-.002zm6.887 18.115c-.94 2.442-2.4 4.173-4.07 4.478v-4.478zm1.148-6.105c-.104 1.83-.313 3.561-.835 5.087h-4.382v-5.087zm6.26-1.019h-5.217c-.104-1.832-.313-3.561-.73-5.088h4.487a12.026 12.026 0 0 1 1.46 5.088z"/></g></g></svg>