<svg xmlns="http://www.w3.org/2000/svg" width="22" height="15"><path d="M0 12.499V2.497c0-1.38 1.231-2.5 2.75-2.5h16.5c1.519 0 2.75 1.12 2.75 2.5V12.5c0 1.38-1.231 2.499-2.75 2.499H2.75c-1.519 0-2.75-1.12-2.75-2.5zM1.43 2.253c-.019.08-.055.159-.055.244V12.5c0 .128.04.246.08.362l5.821-4.535zm17.82 11.495c.091 0 .172-.032.258-.049L11 7.07 2.492 13.7c.086.016.166.048.258.048zm-4.525-5.42l5.819 4.533c.04-.116.08-.234.08-.362V2.497c0-.085-.035-.162-.054-.243zM2.75 1.247c-.14 0-.266.036-.392.072L8.32 7.513l2.233-1.74a.722.722 0 01.447-.15c.159 0 .319.05.447.15l2.233 1.74 5.962-6.193c-.127-.036-.253-.072-.392-.072z"/><path fill="#131f4f" d="M0 12.499V2.497c0-1.38 1.231-2.5 2.75-2.5h16.5c1.519 0 2.75 1.12 2.75 2.5V12.5c0 1.38-1.231 2.499-2.75 2.499H2.75c-1.519 0-2.75-1.12-2.75-2.5zM1.43 2.253c-.019.08-.055.159-.055.244V12.5c0 .128.04.246.08.362l5.821-4.535zm17.82 11.495c.091 0 .172-.032.258-.049L11 7.07 2.492 13.7c.086.016.166.048.258.048zm-4.525-5.42l5.819 4.533c.04-.116.08-.234.08-.362V2.497c0-.085-.035-.162-.054-.243zM2.75 1.247c-.14 0-.266.036-.392.072L8.32 7.513l2.233-1.74a.722.722 0 01.447-.15c.159 0 .319.05.447.15l2.233 1.74 5.962-6.193c-.127-.036-.253-.072-.392-.072z"/></svg>