<svg xmlns="http://www.w3.org/2000/svg" width="32" height="24"><path d="M13.81 14.72c0 2.176-.825 4.243-2.265 5.693-2.818 2.852-7.187 2.621-9.75-.518-2.562-3.138-2.36-8.005.458-10.858C3.527 7.748 5.182 7.03 6.899 7.03c.692 0 1.385.116 2.05.34 2.395.84 4.203 3.053 4.722 5.792.09.509.138 1.04.138 1.558zm-3.456 4.118c-.138-.4-.533-.593-.893-.447v-.008c-1.309.556-2.784.2-3.767-.901a2.53 2.53 0 01-.492-.703h3.56c.38 0 .692-.346.692-.77 0-.425-.312-.772-.693-.772H4.697a3.468 3.468 0 01-.021-.848h4.446c.38 0 .692-.347.692-.772 0-.423-.312-.77-.692-.77H5.085c.166-.333.367-.633.602-.91.99-1.096 2.465-1.45 3.767-.888.36.155.755-.046.893-.44.139-.4-.041-.84-.395-.994-1.814-.771-3.87-.293-5.248 1.241a5.408 5.408 0 00-1.143 1.998h-.983c-.38 0-.693.347-.693.772 0 .423.312.77.693.77h.692c-.014.285-.014.563.014.849h-.706c-.38 0-.693.347-.693.77 0 .426.312.772.693.772h1.06c.235.67.602 1.288 1.066 1.797 1.37 1.535 3.427 2.028 5.248 1.25.36-.155.534-.593.402-.996zm13.593-16.95c0 .108-.326.64-1.835 1.141-1.406.47-3.345.748-5.325.748-1.911 0-3.725-.247-5.103-.694-1.49-.479-1.905-1.01-1.94-1.18 0-.015 0-.015-.006-.024.007-.107.325-.632 1.786-1.133 1.399-.478 3.269-.748 5.263-.748 1.98 0 3.92.27 5.332.748 1.502.51 1.828 1.034 1.828 1.142zm-7.43 19.002a19.66 19.66 0 01-3.213-.316 9.615 9.615 0 001.33-2.538 23.03 23.03 0 001.848.1v.14zm7.52-17.067v1.975a.678.678 0 00-.09.37c0 .1-.326.632-1.835 1.141-1.406.471-3.352.749-5.332.749-1.71 0-3.386-.201-4.716-.58-.02-.007-.034-.007-.055-.015a8.008 8.008 0 00-2.167-1.365l-.049-2.175c.478.27.977.486 1.496.64 1.502.487 3.448.749 5.491.749 2.14 0 4.175-.286 5.726-.81a7.028 7.028 0 001.53-.679zm0 4.272v2.045c-2.978.093-6.052.786-7.188 2.182h-.062c-.665 0-1.309-.031-1.904-.077a9.622 9.622 0 00-1.24-2.87c1.039.148 2.084.225 3.137.225 2.14 0 4.175-.286 5.733-.81a8.403 8.403 0 001.524-.695zM15.18 14.72a8.06 8.06 0 00-.034-.91c.408.032.83.046 1.26.054 0 .015.007.04.007.055l.041 2.667a20.63 20.63 0 01-1.433-.069c.104-.594.16-1.195.16-1.797zM32 17.489c0 .1-.062.216-.062.331 0 .108-.319.633-1.815 1.143-1.42.477-3.303.74-5.31.74-3.802 0-6.378-.95-6.946-1.69l-.014-.663-.027-1.766a7.638 7.638 0 001.578.671c1.489.463 3.407.725 5.401.725 2.105 0 4.114-.278 5.658-.787a7.462 7.462 0 001.53-.678v1.974zm0 2.267v2.337c0 .108-.312.64-1.78 1.15-1.405.485-3.275.755-5.27.755-2 0-3.87-.262-5.255-.733-1.468-.5-1.766-1.017-1.766-1.133v-.016l-.034-2.229c1.648.934 4.397 1.357 6.917 1.357 2.14 0 4.162-.277 5.713-.81A7.65 7.65 0 0032 19.757zm-.021-6.208c-.007.116-.353.648-1.89 1.156-1.42.471-3.29.726-5.27.726-1.87 0-3.656-.24-5.027-.663-1.323-.41-1.856-.888-1.987-1.118a.712.712 0 00-.028-.132c.07-.216.575-.717 1.994-1.164 1.35-.425 3.11-.656 4.958-.656h.09c1.98 0 3.92.247 5.332.732 1.461.495 1.807.988 1.828 1.12z"/><path fill="#111c39" d="M13.81 14.72c0 2.176-.825 4.243-2.265 5.693-2.818 2.852-7.187 2.621-9.75-.518-2.562-3.138-2.36-8.005.458-10.858C3.527 7.748 5.182 7.03 6.899 7.03c.692 0 1.385.116 2.05.34 2.395.84 4.203 3.053 4.722 5.792.09.509.138 1.04.138 1.558zm-3.456 4.118c-.138-.4-.533-.593-.893-.447v-.008c-1.309.556-2.784.2-3.767-.901a2.53 2.53 0 01-.492-.703h3.56c.38 0 .692-.346.692-.77 0-.425-.312-.772-.693-.772H4.697a3.468 3.468 0 01-.021-.848h4.446c.38 0 .692-.347.692-.772 0-.423-.312-.77-.692-.77H5.085c.166-.333.367-.633.602-.91.99-1.096 2.465-1.45 3.767-.888.36.155.755-.046.893-.44.139-.4-.041-.84-.395-.994-1.814-.771-3.87-.293-5.248 1.241a5.408 5.408 0 00-1.143 1.998h-.983c-.38 0-.693.347-.693.772 0 .423.312.77.693.77h.692c-.014.285-.014.563.014.849h-.706c-.38 0-.693.347-.693.77 0 .426.312.772.693.772h1.06c.235.67.602 1.288 1.066 1.797 1.37 1.535 3.427 2.028 5.248 1.25.36-.155.534-.593.402-.996zm13.593-16.95c0 .108-.326.64-1.835 1.141-1.406.47-3.345.748-5.325.748-1.911 0-3.725-.247-5.103-.694-1.49-.479-1.905-1.01-1.94-1.18 0-.015 0-.015-.006-.024.007-.107.325-.632 1.786-1.133 1.399-.478 3.269-.748 5.263-.748 1.98 0 3.92.27 5.332.748 1.502.51 1.828 1.034 1.828 1.142zm-7.43 19.002a19.66 19.66 0 01-3.213-.316 9.615 9.615 0 001.33-2.538 23.03 23.03 0 001.848.1v.14zm7.52-17.067v1.975a.678.678 0 00-.09.37c0 .1-.326.632-1.835 1.141-1.406.471-3.352.749-5.332.749-1.71 0-3.386-.201-4.716-.58-.02-.007-.034-.007-.055-.015a8.008 8.008 0 00-2.167-1.365l-.049-2.175c.478.27.977.486 1.496.64 1.502.487 3.448.749 5.491.749 2.14 0 4.175-.286 5.726-.81a7.028 7.028 0 001.53-.679zm0 4.272v2.045c-2.978.093-6.052.786-7.188 2.182h-.062c-.665 0-1.309-.031-1.904-.077a9.622 9.622 0 00-1.24-2.87c1.039.148 2.084.225 3.137.225 2.14 0 4.175-.286 5.733-.81a8.403 8.403 0 001.524-.695zM15.18 14.72a8.06 8.06 0 00-.034-.91c.408.032.83.046 1.26.054 0 .015.007.04.007.055l.041 2.667a20.63 20.63 0 01-1.433-.069c.104-.594.16-1.195.16-1.797zM32 17.489c0 .1-.062.216-.062.331 0 .108-.319.633-1.815 1.143-1.42.477-3.303.74-5.31.74-3.802 0-6.378-.95-6.946-1.69l-.014-.663-.027-1.766a7.638 7.638 0 001.578.671c1.489.463 3.407.725 5.401.725 2.105 0 4.114-.278 5.658-.787a7.462 7.462 0 001.53-.678v1.974zm0 2.267v2.337c0 .108-.312.64-1.78 1.15-1.405.485-3.275.755-5.27.755-2 0-3.87-.262-5.255-.733-1.468-.5-1.766-1.017-1.766-1.133v-.016l-.034-2.229c1.648.934 4.397 1.357 6.917 1.357 2.14 0 4.162-.277 5.713-.81A7.65 7.65 0 0032 19.757zm-.021-6.208c-.007.116-.353.648-1.89 1.156-1.42.471-3.29.726-5.27.726-1.87 0-3.656-.24-5.027-.663-1.323-.41-1.856-.888-1.987-1.118a.712.712 0 00-.028-.132c.07-.216.575-.717 1.994-1.164 1.35-.425 3.11-.656 4.958-.656h.09c1.98 0 3.92.247 5.332.732 1.461.495 1.807.988 1.828 1.12z"/></svg>