<svg xmlns="http://www.w3.org/2000/svg" width="26" height="24"><path d="M13-.002c1.263 0 2.287 1.008 2.287 2.25S14.263 4.498 13 4.498c-1.264 0-2.288-1.008-2.288-2.25S11.736-.002 13-.002zm6.1 6v3c0 .827-.684 1.5-1.525 1.5-.84 0-1.525-.673-1.525-1.5v-1.5h-6.1v1.5c0 .827-.684 1.5-1.525 1.5-.84 0-1.525-.673-1.525-1.5v-3c0-1.43 1.024-2.625 2.388-2.924A3.801 3.801 0 0013 5.998a3.801 3.801 0 003.712-2.924c1.364.299 2.388 1.494 2.388 2.924zm6.606 15.404c-.631 1.076-2.081 1.445-3.175.823a2.23 2.23 0 01-.838-3.073c.632-1.076 2.031-1.445 3.125-.824 1.094.622 1.52 1.998.888 3.074zm-.902-4.7c-1.664-.508-3.525.156-4.431 1.7-.907 1.544-.56 3.462.718 4.624a3.088 3.088 0 01-3.768.572l-2.642-1.5a1.489 1.489 0 01-.558-2.049 1.541 1.541 0 012.083-.55l1.321.75 3.05-5.195-1.32-.75a1.488 1.488 0 01-.559-2.05 1.542 1.542 0 012.083-.549l2.642 1.5a2.98 2.98 0 011.38 3.497zM3.469 22.225c-1.094.622-2.544.253-3.176-.823-.631-1.076-.206-2.452.888-3.074 1.094-.62 2.494-.252 3.125.824a2.23 2.23 0 01-.837 3.073zm7.85-.127l-2.642 1.5a3.088 3.088 0 01-3.768-.572c1.278-1.162 1.624-3.08.718-4.624-.906-1.544-2.768-2.208-4.43-1.7a2.98 2.98 0 011.38-3.496l2.641-1.5a1.542 1.542 0 012.084.549c.42.715.17 1.635-.559 2.048l-1.32.75 3.05 5.197 1.32-.75a1.541 1.541 0 012.083.55c.42.715.17 1.634-.558 2.048z"/><path fill="#111c39" d="M13-.002c1.263 0 2.287 1.008 2.287 2.25S14.263 4.498 13 4.498c-1.264 0-2.288-1.008-2.288-2.25S11.736-.002 13-.002zm6.1 6v3c0 .827-.684 1.5-1.525 1.5-.84 0-1.525-.673-1.525-1.5v-1.5h-6.1v1.5c0 .827-.684 1.5-1.525 1.5-.84 0-1.525-.673-1.525-1.5v-3c0-1.43 1.024-2.625 2.388-2.924A3.801 3.801 0 0013 5.998a3.801 3.801 0 003.712-2.924c1.364.299 2.388 1.494 2.388 2.924zm6.606 15.404c-.631 1.076-2.081 1.445-3.175.823a2.23 2.23 0 01-.838-3.073c.632-1.076 2.031-1.445 3.125-.824 1.094.622 1.52 1.998.888 3.074zm-.902-4.7c-1.664-.508-3.525.156-4.431 1.7-.907 1.544-.56 3.462.718 4.624a3.088 3.088 0 01-3.768.572l-2.642-1.5a1.489 1.489 0 01-.558-2.049 1.541 1.541 0 012.083-.55l1.321.75 3.05-5.195-1.32-.75a1.488 1.488 0 01-.559-2.05 1.542 1.542 0 012.083-.549l2.642 1.5a2.98 2.98 0 011.38 3.497zM3.469 22.225c-1.094.622-2.544.253-3.176-.823-.631-1.076-.206-2.452.888-3.074 1.094-.62 2.494-.252 3.125.824a2.23 2.23 0 01-.837 3.073zm7.85-.127l-2.642 1.5a3.088 3.088 0 01-3.768-.572c1.278-1.162 1.624-3.08.718-4.624-.906-1.544-2.768-2.208-4.43-1.7a2.98 2.98 0 011.38-3.496l2.641-1.5a1.542 1.542 0 012.084.549c.42.715.17 1.635-.559 2.048l-1.32.75 3.05 5.197 1.32-.75a1.541 1.541 0 012.083.55c.42.715.17 1.634-.558 2.048z"/></svg>